<svg xmlns="http://www.w3.org/2000/svg" xmlns:xlink="http://www.w3.org/1999/xlink" width="48" zoomAndPan="magnify" viewBox="0 0 36 36.000001" height="48" preserveAspectRatio="xMidYMid meet" version="1.0"><defs><clipPath id="3a8eaf238b"><path d="M 1.199219 3.503906 L 34.769531 3.503906 L 34.769531 31.234375 L 1.199219 31.234375 Z M 1.199219 3.503906 " clip-rule="nonzero"/></clipPath><clipPath id="b20b02260f"><path d="M 11 3.503906 L 34.769531 3.503906 L 34.769531 31.234375 L 11 31.234375 Z M 11 3.503906 " clip-rule="nonzero"/></clipPath><clipPath id="d10a15c847"><path d="M 1.199219 5 L 34.769531 5 L 34.769531 31.234375 L 1.199219 31.234375 Z M 1.199219 5 " clip-rule="nonzero"/></clipPath><clipPath id="8e68b3a1c3"><path d="M 3 15 L 20 15 L 20 31.234375 L 3 31.234375 Z M 3 15 " clip-rule="nonzero"/></clipPath><clipPath id="075b392acb"><path d="M 1.199219 10 L 29 10 L 29 31.234375 L 1.199219 31.234375 Z M 1.199219 10 " clip-rule="nonzero"/></clipPath><clipPath id="2b763bd004"><path d="M 3 15 L 26 15 L 26 31.234375 L 3 31.234375 Z M 3 15 " clip-rule="nonzero"/></clipPath><clipPath id="21903b9e0b"><path d="M 1.199219 13 L 17 13 L 17 31.234375 L 1.199219 31.234375 Z M 1.199219 13 " clip-rule="nonzero"/></clipPath><clipPath id="6f05c3793b"><path d="M 1.199219 14 L 20 14 L 20 31.234375 L 1.199219 31.234375 Z M 1.199219 14 " clip-rule="nonzero"/></clipPath><clipPath id="3514cfc0d7"><path d="M 5 3.503906 L 34.769531 3.503906 L 34.769531 26 L 5 26 Z M 5 3.503906 " clip-rule="nonzero"/></clipPath><clipPath id="34a289a6b9"><path d="M 2 16 L 22 16 L 22 31.234375 L 2 31.234375 Z M 2 16 " clip-rule="nonzero"/></clipPath><clipPath id="2d858e85da"><path d="M 5 17 L 27 17 L 27 31.234375 L 5 31.234375 Z M 5 17 " clip-rule="nonzero"/></clipPath><clipPath id="b4733bc2dd"><path d="M 3 17 L 28 17 L 28 31.234375 L 3 31.234375 Z M 3 17 " clip-rule="nonzero"/></clipPath><clipPath id="1aa89c3519"><path d="M 1.199219 15 L 19 15 L 19 31.234375 L 1.199219 31.234375 Z M 1.199219 15 " clip-rule="nonzero"/></clipPath><clipPath id="bfcc9182e3"><path d="M 1.199219 3.503906 L 34.769531 3.503906 L 34.769531 31.234375 L 1.199219 31.234375 Z M 1.199219 3.503906 " clip-rule="nonzero"/></clipPath><clipPath id="7ca4527537"><path d="M 2 4 L 34.769531 4 L 34.769531 25 L 2 25 Z M 2 4 " clip-rule="nonzero"/></clipPath><clipPath id="fe14e7cee8"><path d="M 10 13 L 34.769531 13 L 34.769531 31 L 10 31 Z M 10 13 " clip-rule="nonzero"/></clipPath><clipPath id="5e600341b1"><path d="M 1.199219 21 L 9 21 L 9 27 L 1.199219 27 Z M 1.199219 21 " clip-rule="nonzero"/></clipPath></defs><g clip-path="url(#3a8eaf238b)"><path stroke-linecap="butt" transform="matrix(0.729234, 0, 0, 0.733348, 1.181853, 3.543478)" fill="none" stroke-linejoin="miter" d="M 1.705801 20.288313 C 1.89864 20.133842 2.102193 20.006004 2.353955 20.021983 C 2.600361 20.037963 2.836053 20.080576 3.061032 20.155148 C 4.4859 20.639869 5.942908 21.220468 7.319566 21.79574 C 10.512127 23.132716 13.811821 24.517631 17.218648 25.950486 C 19.682705 26.983846 22.253896 28.038512 24.835799 28.874788 C 25.194694 28.991973 25.575016 29.098505 25.982121 29.189057 C 26.249954 29.24765 26.528499 29.295589 26.710625 29.114485 C 27.353423 28.48062 27.948011 27.873388 28.483675 27.292788 C 31.895859 23.606783 35.297329 19.734347 38.677373 15.67548 C 41.055724 12.825751 43.187669 10.162452 45.126775 7.350009 C 45.201768 7.23815 45.217838 7.120965 45.110705 7.025087 C 44.848229 6.774737 44.55897 6.598959 44.237572 6.497753 C 41.291416 5.570926 38.302408 4.644098 35.281259 3.711943 C 32.292251 2.790442 29.281815 1.9009 26.23924 1.14985 C 25.462527 0.958092 24.70724 0.814274 23.973379 0.718396 C 23.81268 0.697089 23.571631 0.707742 23.443071 0.798295 C 23.030609 1.085931 22.618148 1.405527 22.200329 1.757082 C 20.882594 2.859688 19.527363 4.031539 18.145348 5.26731 C 15.402745 7.728197 11.058505 11.691186 5.123341 17.156274 C 3.891312 18.290839 2.74499 19.313546 1.689731 20.229721 C 1.679018 20.240374 1.679018 20.256354 1.689731 20.267007 L 1.700444 20.282987 C 1.700444 20.288313 1.705801 20.288313 1.705801 20.288313 " stroke="#3d2812" stroke-width="2" stroke-opacity="1" stroke-miterlimit="4"/></g><g clip-path="url(#b20b02260f)"><path stroke-linecap="butt" transform="matrix(0.729234, 0, 0, 0.733348, 1.181853, 3.543478)" fill="none" stroke-linejoin="miter" d="M 38.120282 17.752853 C 38.500604 17.273459 38.886282 16.794066 39.266604 16.319998 C 40.809318 14.402424 42.137766 12.751178 43.241235 11.37159 C 43.268019 11.344957 43.284089 11.302344 43.294802 11.243751 C 43.305515 11.201139 43.289445 11.163852 43.251949 11.13722 C 43.241235 11.131893 43.230522 11.131893 43.225166 11.142546 C 42.223473 12.442236 41.232493 13.683333 40.257584 14.865837 C 37.72389 17.939284 35.07235 21.034037 32.302964 24.14477 C 30.872739 25.748075 29.410375 27.340728 27.915871 28.917401 C 27.605185 29.24765 27.283786 29.551266 26.962388 29.817595 C 26.839185 29.918801 26.699912 29.961414 26.539213 29.95076 C 26.491003 29.95076 26.453506 29.96674 26.43208 30.009353 C 25.462527 31.863009 25.596443 34.132139 26.565996 35.932529 C 26.592779 35.980468 26.624919 35.985795 26.662415 35.943182 C 26.892751 35.692832 27.107017 35.447809 27.305213 35.202785 C 29.142543 32.965614 31.151285 30.46744 33.33144 27.708263 C 36.229386 24.038238 39.127331 20.346906 42.03599 16.628941 C 42.335962 16.250753 42.657361 15.883218 42.941263 15.489049 C 43.064466 15.318598 43.193026 15.1588 43.332298 15.004329 C 43.396578 14.929757 43.444788 14.855184 43.482285 14.764632 C 43.525138 14.663427 43.509068 14.6581 43.444788 14.743326 C 42.919837 15.403824 42.421669 16.037689 41.869934 16.660901 C 41.859221 16.671554 41.853864 16.671554 41.843151 16.660901 C 41.837794 16.655574 41.837794 16.650247 41.843151 16.639594 C 42.539515 15.728746 43.235879 14.817898 43.937599 13.90705 C 43.964383 13.87509 43.964383 13.837804 43.948313 13.800518 L 43.82511 13.560821 C 43.803683 13.523535 43.7769 13.523535 43.750117 13.555495 L 37.884589 20.373539 C 37.873876 20.384192 37.863163 20.384192 37.847093 20.378865 L 37.825666 20.362886 C 37.809596 20.346906 37.80424 20.336253 37.82031 20.320273 L 43.675124 13.342431 C 43.68048 13.342431 43.68048 13.337104 43.68048 13.331778 C 43.669767 13.262532 43.589417 13.054794 43.434075 12.708566 C 43.434075 12.703239 43.428718 12.703239 43.423361 12.708566 C 41.194997 15.217393 38.977345 17.7422 36.770407 20.27766 C 36.770407 20.282987 36.76505 20.282987 36.76505 20.27766 L 36.74898 20.267007 C 36.73291 20.256354 36.73291 20.240374 36.743624 20.229721 L 43.294802 12.559421 C 43.348368 12.500828 43.369795 12.426256 43.359082 12.346357 L 43.278732 11.733798 C 43.273375 11.680532 43.251949 11.675206 43.214452 11.712492 C 41.521752 13.720619 39.829052 15.734073 38.136352 17.752853 C 38.130995 17.752853 38.130995 17.75818 38.125638 17.75818 C 38.114925 17.75818 38.114925 17.75818 38.120282 17.752853 " stroke="#807b65" stroke-width="2" stroke-opacity="1" stroke-miterlimit="4"/></g><g clip-path="url(#d10a15c847)"><path stroke-linecap="butt" transform="matrix(0.729234, 0, 0, 0.733348, 1.181853, 3.543478)" fill="none" stroke-linejoin="miter" d="M 44.885726 13.992276 C 44.880369 14.088154 44.848229 14.17338 44.789306 14.247952 C 40.482563 19.766307 36.234742 25.172803 32.035132 30.46744 C 30.524557 32.374362 28.9872 34.265304 27.433773 36.140266 C 27.251647 36.358657 26.935604 36.806091 26.608849 36.758151 C 26.341017 36.720865 26.046401 36.65162 25.719646 36.545088 C 24.326918 36.087 22.891337 35.575647 21.418259 35.016354 C 18.38104 33.871136 15.370605 32.688631 12.397667 31.479494 C 12.36017 31.463514 12.333387 31.474167 12.317317 31.506127 L 12.183401 31.772457 C 12.161974 31.809743 12.172688 31.836376 12.215541 31.857682 C 16.013403 33.429028 20.004104 35.005701 23.882316 36.289411 C 24.584037 36.523781 25.285757 36.715539 25.982121 36.875337 C 26.158891 36.917949 26.341017 36.944582 26.539213 36.965889 C 26.796332 36.992522 27.005241 36.832724 27.176654 36.672926 C 27.594472 36.273431 28.001577 35.879263 28.392612 35.442482 C 29.431802 34.270631 30.374571 33.162698 31.220921 32.113359 C 34.19386 28.4167 37.231078 24.512305 40.32722 20.394845 C 41.762801 18.482597 43.262662 16.479796 44.826803 14.386444 C 44.896439 14.290565 44.966076 14.194686 45.024999 14.093481 C 45.051782 14.045542 45.041069 14.008255 44.992859 13.981622 C 44.971432 13.970969 44.950006 13.965643 44.923222 13.960316 C 44.896439 13.960316 44.885726 13.970969 44.885726 13.992276 " stroke="#3d2812" stroke-width="2" stroke-opacity="1" stroke-miterlimit="4"/></g><g clip-path="url(#8e68b3a1c3)"><path stroke-linecap="butt" transform="matrix(0.729234, 0, 0, 0.733348, 1.181853, 3.543478)" fill="none" stroke-linejoin="miter" d="M 14.122507 27.143644 C 14.111793 27.122337 14.090367 27.132991 14.058227 27.170277 " stroke="#3d2812" stroke-width="2" stroke-opacity="1" stroke-miterlimit="4"/></g><g clip-path="url(#075b392acb)"><path stroke-linecap="butt" transform="matrix(0.729234, 0, 0, 0.733348, 1.181853, 3.543478)" fill="none" stroke-linejoin="miter" d="M 14.058227 27.170277 C 13.785038 27.287462 13.565416 27.484546 13.404716 27.756202 C 13.195807 28.113084 13.045821 28.501926 12.960115 28.928054 C 12.842268 29.492673 12.719065 30.099905 12.590506 30.755077 C 12.585149 30.78171 12.595863 30.803016 12.617289 30.808343 C 16.195529 32.26783 19.714845 33.642092 23.180595 34.925802 C 24.273351 35.330623 25.344681 35.692832 26.389227 36.017754 C 26.469576 36.039061 26.48029 36.023081 26.421366 35.959162 C 26.067828 35.57032 25.799995 35.080273 25.623226 34.499674 C 25.248261 33.253251 25.275044 32.04944 25.703576 30.882915 C 25.826779 30.552666 25.992835 30.24905 26.196387 29.98272 C 26.217814 29.95076 26.212457 29.929454 26.169604 29.924127 C 25.869632 29.881515 25.56966 29.817595 25.269687 29.73237 C 24.61082 29.545939 23.946596 29.332875 23.287728 29.087852 C 21.391476 28.395394 19.48451 27.64967 17.577544 26.856008 C 16.366941 26.355307 15.236689 25.88124 14.18143 25.433806 C 11.347764 24.235322 8.626588 23.09543 6.028614 22.019457 C 5.294754 21.715841 4.448404 21.385592 3.478851 21.034037 C 3.157452 20.916852 2.82534 20.815646 2.477158 20.725094 C 2.380738 20.703788 2.278962 20.714441 2.182542 20.767707 C 2.161116 20.77836 2.150402 20.79434 2.155759 20.820973 C 2.155759 20.842279 2.166472 20.858259 2.187899 20.868912 L 7.437412 22.877039 C 7.453482 22.882366 7.458839 22.887693 7.453482 22.903672 L 7.442769 22.924979 C 7.442769 22.930305 7.442769 22.930305 7.437412 22.930305 C 5.637579 22.280461 3.843103 21.635942 2.048626 20.991424 C 1.99506 20.975444 1.952207 20.986098 1.920067 21.034037 C 1.727227 21.29504 1.582598 21.603983 1.480822 21.944885 C 1.470108 21.982171 1.480822 22.003478 1.512962 22.014131 C 3.318151 22.770508 5.166194 23.542864 7.04102 24.325874 C 7.239216 24.411099 7.432056 24.490998 7.619538 24.576224 C 7.796308 24.656123 7.989147 24.736022 8.198056 24.815921 C 8.765861 25.044964 9.328308 25.274008 9.8854 25.508378 C 9.896113 25.513705 9.90147 25.519032 9.896113 25.529685 L 9.890756 25.550991 C 9.8854 25.556318 9.8854 25.556318 9.880043 25.550991 C 7.132083 24.437732 4.325201 23.319147 1.464752 22.195235 C 1.427255 22.179255 1.411185 22.189908 1.405829 22.227195 L 1.320122 23.148696 C 1.314766 23.201962 1.336192 23.244575 1.389759 23.265881 C 3.178879 24.048891 4.962642 24.837227 6.735692 25.625564 C 7.287426 25.870587 7.844517 26.104957 8.401609 26.334001 C 8.412322 26.339328 8.417679 26.344654 8.412322 26.355307 C 8.406965 26.365961 8.396252 26.371287 8.385539 26.365961 C 6.114321 25.417826 3.794893 24.453712 1.432612 23.468292 C 1.379045 23.452312 1.357619 23.468292 1.362975 23.521558 C 1.405829 23.8305 1.480822 24.160749 1.587955 24.501652 C 1.604025 24.554918 1.636164 24.586877 1.684374 24.608184 L 9.339022 27.798815 C 9.392588 27.825448 9.392588 27.836101 9.333665 27.841428 C 9.285455 27.846755 9.237245 27.836101 9.194392 27.820122 C 6.698195 26.781435 4.223425 25.790688 1.770081 24.831901 C 1.721871 24.815921 1.711157 24.826574 1.727227 24.874513 C 1.85043 25.14617 2.171829 25.817321 2.418235 25.934506 C 3.869886 26.600331 5.273327 27.244849 6.628559 27.873388 C 7.271356 28.171677 7.892727 28.459313 8.481958 28.725643 C 8.487315 28.725643 8.487315 28.725643 8.487315 28.73097 L 8.476602 28.752276 C 8.465888 28.768256 8.455175 28.773582 8.439105 28.768256 L 2.734277 26.216816 C 2.578934 26.14757 2.562864 26.174203 2.686067 26.291388 C 2.85748 26.451186 3.028892 26.579024 3.200305 26.669577 C 3.880599 27.037112 4.705523 27.43128 5.675076 27.862734 C 7.292783 28.581825 8.771217 29.221017 10.115735 29.780309 C 10.137162 29.785636 10.153232 29.780309 10.163945 29.76433 C 10.544267 29.189057 10.919232 28.469966 10.978155 27.772182 C 11.037079 27.047765 11.112072 26.408573 11.615596 25.902547 C 11.829862 25.684156 12.092338 25.423153 12.354813 25.226069 C 12.397667 25.199436 12.39231 25.172803 12.349457 25.156823 C 12.044128 25.018332 11.733443 24.87984 11.422757 24.725369 C 11.412044 24.720042 11.412044 24.714715 11.412044 24.704062 C 11.4174 24.698736 11.422757 24.693409 11.43347 24.698736 C 12.820842 25.14617 14.10108 25.827974 15.434885 26.392594 C 16.977599 27.047765 18.284621 27.617711 19.35595 28.102431 C 19.495223 28.16635 19.634496 28.23027 19.768412 28.294189 C 19.773768 28.299515 19.779125 28.304842 19.773768 28.315495 C 19.768412 28.326148 19.763055 28.326148 19.752342 28.326148 C 18.354257 27.788162 17.020452 27.19691 15.665221 26.600331 C 15.622368 26.579024 15.579514 26.579024 15.531305 26.589678 C 15.05992 26.717516 14.604605 26.887967 14.160003 27.090378 C 14.14929 27.095704 14.138577 27.111684 14.122507 27.143644 " stroke="#807b65" stroke-width="2" stroke-opacity="1" stroke-miterlimit="4"/></g><g clip-path="url(#2b763bd004)"><path stroke-linecap="butt" transform="matrix(0.729234, 0, 0, 0.733348, 1.181853, 3.543478)" fill="none" stroke-linejoin="miter" d="M 14.058227 27.170277 C 14.609962 27.425953 15.156339 27.660324 15.708074 27.878714 C 17.454341 28.571172 19.216677 29.268956 20.995084 29.977393 C 21.230776 30.067946 21.728944 30.24905 22.473518 30.510053 C 22.484231 30.51538 22.484231 30.510053 22.489588 30.504727 L 22.494945 30.48342 C 22.500301 30.46744 22.494945 30.456787 22.478875 30.446134 L 14.122507 27.143644 " stroke="#bca176" stroke-width="2" stroke-opacity="1" stroke-miterlimit="4"/></g><g clip-path="url(#21903b9e0b)"><path stroke-linecap="butt" transform="matrix(0.729234, 0, 0, 0.733348, 1.181853, 3.543478)" fill="none" stroke-linejoin="miter" d="M 3.061032 27.404647 C 2.021843 26.89862 1.250486 25.796015 0.907661 24.666776 C 0.907661 24.66145 0.902304 24.66145 0.896947 24.66145 L 0.875521 24.666776 C 0.854094 24.672103 0.848737 24.682756 0.854094 24.698736 C 0.929087 25.167476 1.046933 25.620237 1.218346 26.051691 C 1.379045 26.477819 1.614738 26.856008 1.925423 27.186257 C 2.187899 27.468566 2.546794 27.654997 2.900333 27.820122 C 5.042991 28.816195 7.196363 29.76433 9.365805 30.664524 C 9.424728 30.691157 9.472938 30.680504 9.510434 30.627238 L 9.67649 30.435481 C 9.713987 30.387541 9.70863 30.355582 9.649707 30.328949 C 7.378489 29.418101 5.187621 28.443333 3.061032 27.404647 " stroke="#3d2812" stroke-width="2" stroke-opacity="1" stroke-miterlimit="4"/></g><g clip-path="url(#6f05c3793b)"><path stroke-linecap="butt" transform="matrix(0.729234, 0, 0, 0.733348, 1.181853, 3.543478)" fill="none" stroke-linejoin="miter" d="M 13.31901 26.877314 C 13.313653 26.866661 13.308297 26.861334 13.31901 26.850681 C 13.506492 26.63229 13.715402 26.44586 13.935024 26.291388 C 13.972521 26.270082 13.972521 26.243449 13.935024 26.222142 L 13.902884 26.200836 C 13.870744 26.174203 13.833248 26.174203 13.795751 26.195509 C 13.485066 26.403247 13.265443 26.600331 13.067247 26.887967 C 13.045821 26.919927 13.029751 26.919927 13.019038 26.88264 C 13.013681 26.866661 13.013681 26.856008 13.024394 26.840028 C 13.15831 26.605657 13.361863 26.371287 13.635052 26.136917 C 13.651122 26.120937 13.651122 26.104957 13.635052 26.088978 L 13.618982 26.067671 C 13.586842 26.035712 13.554702 26.030385 13.517206 26.057018 C 13.28687 26.206163 13.088674 26.387267 12.922618 26.600331 C 12.911905 26.610984 12.906548 26.610984 12.895835 26.605657 C 12.890478 26.600331 12.890478 26.595004 12.895835 26.589678 C 13.019038 26.376614 13.17438 26.190183 13.36722 26.030385 C 13.415429 25.993099 13.410073 25.966466 13.35115 25.945159 L 13.308297 25.934506 C 13.265443 25.918526 13.22259 25.92918 13.185094 25.961139 C 12.976184 26.142243 12.788702 26.339328 12.622646 26.557718 C 12.617289 26.563045 12.606576 26.568371 12.595863 26.557718 C 12.590506 26.552391 12.585149 26.547065 12.590506 26.536412 C 12.729779 26.307368 12.901191 26.104957 13.094031 25.923853 C 13.120814 25.89722 13.115457 25.875914 13.088674 25.859934 L 13.040464 25.833301 C 13.013681 25.817321 12.986898 25.822648 12.965471 25.843954 L 12.692282 26.110284 C 12.681569 26.120937 12.670856 26.120937 12.660142 26.110284 L 12.644072 26.094304 C 12.644072 26.094304 12.644072 26.088978 12.644072 26.083651 C 12.719065 26.003752 12.794058 25.918526 12.863695 25.822648 C 12.895835 25.785361 12.890478 25.748075 12.842268 25.710789 C 12.804772 25.684156 12.767275 25.689483 12.735135 25.716116 L 12.215541 26.168876 C 12.215541 26.174203 12.210184 26.174203 12.210184 26.168876 L 12.188757 26.152897 C 12.172688 26.136917 12.172688 26.120937 12.188757 26.104957 L 12.606576 25.705463 C 12.622646 25.684156 12.628002 25.66285 12.611933 25.641543 L 12.595863 25.61491 C 12.585149 25.588277 12.563723 25.588277 12.547653 25.604257 C 12.301247 25.806668 12.076268 26.025058 11.867359 26.264755 C 11.620953 26.541738 11.48168 26.877314 11.454897 27.276809 C 11.43347 27.623037 11.390617 27.93198 11.337051 28.219616 C 11.283484 28.485946 11.176351 28.784236 11.015652 29.119811 C 10.303218 30.605932 9.226532 31.729844 7.785594 32.5022 C 7.330279 32.747224 6.912461 32.917675 6.537496 33.013554 C 6.526782 33.01888 6.521426 33.01888 6.510712 33.024207 C 6.505356 33.03486 6.499999 33.045513 6.499999 33.056167 C 6.505356 33.077473 6.521426 33.093453 6.542852 33.098779 L 7.930224 33.274557 C 7.946294 33.274557 7.95165 33.28521 7.940937 33.295863 C 7.694531 33.716665 7.453482 34.094853 7.212433 34.441082 C 7.207076 34.457062 7.212433 34.467715 7.244573 34.483695 C 7.260643 34.494348 7.276713 34.494348 7.287426 34.483695 C 7.608825 34.270631 7.924867 34.06822 8.240909 33.876462 C 8.915847 33.466314 9.644351 33.168025 10.324645 32.827123 C 11.294198 32.337076 11.936995 31.713864 12.172688 30.611258 C 12.290534 30.051966 12.397667 29.524633 12.499443 29.029259 C 12.595863 28.544539 12.751205 28.027859 13.002968 27.591078 C 13.30294 27.074398 13.779681 26.722843 14.438549 26.531085 C 14.454619 26.525758 14.459975 26.515105 14.465332 26.493799 C 14.465332 26.477819 14.459975 26.467166 14.443906 26.456513 L 14.218926 26.349981 C 14.160003 26.318021 14.106437 26.323348 14.05287 26.355307 C 13.806465 26.504452 13.576129 26.685556 13.36722 26.893294 C 13.356506 26.903947 13.345793 26.903947 13.33508 26.893294 L 13.31901 26.877314 " stroke="#7b2c15" stroke-width="2" stroke-opacity="1" stroke-miterlimit="4"/></g><g clip-path="url(#3514cfc0d7)"><path stroke-linecap="butt" transform="matrix(0.729234, 0, 0, 0.733348, 1.181853, 3.543478)" fill="none" stroke-linejoin="miter" d="M 38.195275 10.641846 C 38.227415 10.609886 38.222058 10.58858 38.179205 10.5726 L 32.088698 8.543167 C 32.045845 8.532514 32.040488 8.505881 32.072628 8.473921 L 34.815231 5.799969 C 34.847371 5.76801 34.842014 5.741377 34.793804 5.730723 L 30.460278 4.287216 C 30.444208 4.281889 30.428138 4.281889 30.417424 4.297869 L 27.706961 7.05172 C 27.696248 7.062373 27.680178 7.067699 27.664108 7.062373 L 22.034273 5.128818 C 22.018203 5.123491 22.002133 5.128818 21.99142 5.139471 L 19.414873 7.722871 C 19.382733 7.75483 19.38809 7.781463 19.430943 7.792117 L 25.007212 9.613813 C 25.050065 9.629793 25.055422 9.651099 25.023282 9.683059 L 17.122229 17.582402 C 17.090089 17.614362 17.095445 17.635668 17.138299 17.651648 L 21.434329 19.164401 C 21.450399 19.169728 21.466469 19.164401 21.477182 19.153748 L 29.421088 11.099933 C 29.431802 11.08928 29.447872 11.083954 29.463941 11.094607 L 35.570518 13.177306 C 35.586588 13.182633 35.602658 13.182633 35.613371 13.166653 L 38.195275 10.641846 " stroke="#3d2812" stroke-width="2" stroke-opacity="1" stroke-miterlimit="4"/><path stroke-linecap="butt" transform="matrix(0.729234, 0, 0, 0.733348, 1.181853, 3.543478)" fill="none" stroke-linejoin="miter" d="M 31.263775 8.655025 L 34.001021 5.997053 C 34.043874 5.954441 34.038517 5.927808 33.979594 5.906501 L 30.59955 4.782589 C 30.567411 4.771936 30.540627 4.777263 30.519201 4.798569 L 27.835521 7.525787 C 27.814094 7.547093 27.787311 7.557746 27.760528 7.547093 L 22.168189 5.624192 C 22.141406 5.613538 22.125336 5.618865 22.10391 5.634845 L 20.207657 7.541766 C 20.18623 7.568399 20.18623 7.584379 20.223727 7.595032 C 22.08784 8.218244 23.919813 8.814823 25.708932 9.374116 C 25.741072 9.384769 25.773212 9.395422 25.805352 9.406075 C 25.858919 9.427382 25.869632 9.454015 25.826779 9.496628 L 17.904299 17.411951 C 17.872159 17.438584 17.877516 17.45989 17.915012 17.470543 L 21.289699 18.658375 C 21.327196 18.669028 21.359336 18.663701 21.386119 18.631742 L 29.292529 10.625866 C 29.313955 10.60456 29.335382 10.593907 29.367522 10.60456 L 35.436602 12.681933 C 35.463385 12.692586 35.490168 12.687259 35.511595 12.665953 L 37.407848 10.82295 C 37.434631 10.796317 37.429274 10.775011 37.397134 10.764358 L 31.279845 8.718944 C 31.236991 8.708291 31.231635 8.686985 31.263775 8.655025 " stroke="#806e3d" stroke-width="2" stroke-opacity="1" stroke-miterlimit="4"/></g><g clip-path="url(#34a289a6b9)"><path stroke-linecap="butt" transform="matrix(0.729234, 0, 0, 0.733348, 1.181853, 3.543478)" fill="none" stroke-linejoin="miter" d="M 16.045543 29.865535 C 16.050899 29.849555 15.933053 29.790962 15.686647 29.684431 C 15.434885 29.583225 15.134913 29.460713 14.781374 29.332875 C 14.427836 29.19971 14.122507 29.093178 13.865388 29.013279 C 13.613625 28.93338 13.479709 28.901421 13.474353 28.917401 C 13.468996 28.93338 13.592199 28.991973 13.838604 29.098505 C 14.08501 29.19971 14.384982 29.316895 14.738521 29.45006 C 15.09206 29.583225 15.397389 29.689757 15.654508 29.769656 C 15.90627 29.849555 16.040186 29.881515 16.045543 29.865535 " stroke="#bca176" stroke-width="2" stroke-opacity="1" stroke-miterlimit="4"/></g><g clip-path="url(#2d858e85da)"><path stroke-linecap="butt" transform="matrix(0.729234, 0, 0, 0.733348, 1.181853, 3.543478)" fill="none" stroke-linejoin="miter" d="M 23.293085 32.400995 C 23.303798 32.385015 23.298442 32.374362 23.282372 32.369035 L 17.315068 29.98272 C 17.298998 29.977393 17.288285 29.98272 17.282928 29.993373 L 17.266858 30.030659 C 17.261501 30.046639 17.266858 30.057292 17.282928 30.062619 L 23.250232 32.448934 C 23.266302 32.454261 23.277015 32.448934 23.282372 32.432955 L 23.293085 32.400995 " stroke="#807b65" stroke-width="2" stroke-opacity="1" stroke-miterlimit="4"/></g><g clip-path="url(#b4733bc2dd)"><path stroke-linecap="butt" transform="matrix(0.729234, 0, 0, 0.733348, 1.181853, 3.543478)" fill="none" stroke-linejoin="miter" d="M 14.347486 30.973467 C 15.258116 31.383615 16.222312 31.788436 17.229362 32.198584 C 18.820285 32.843103 20.437993 33.492947 22.08784 34.153446 C 22.468162 34.307917 22.848483 34.451735 23.223449 34.5849 C 23.61984 34.728718 24.000162 34.861883 24.359058 34.989721 C 24.364414 34.989721 24.364414 34.989721 24.369771 34.984395 L 24.375128 34.968415 C 24.380484 34.952435 24.375128 34.947108 24.364414 34.941782 C 22.655644 34.228018 20.930804 33.56752 19.222034 32.864409 C 17.459697 32.139992 15.756284 31.447534 14.111793 30.787036 C 13.999304 30.744423 13.993947 30.755077 14.090367 30.829649 C 14.143933 30.872262 14.22964 30.920201 14.347486 30.973467 " stroke="#bca176" stroke-width="2" stroke-opacity="1" stroke-miterlimit="4"/></g><g clip-path="url(#1aa89c3519)"><path stroke-linecap="butt" transform="matrix(0.729234, 0, 0, 0.733348, 1.181853, 3.543478)" fill="none" stroke-linejoin="miter" d="M 12.140548 27.686957 C 12.097694 27.921327 12.060198 28.16635 12.017345 28.4167 C 11.792366 29.833575 11.117428 30.96814 10.003246 31.825723 C 9.644351 32.102706 9.221175 32.385015 8.723007 32.672652 C 8.717651 32.677978 8.717651 32.677978 8.723007 32.683305 L 8.728364 32.704611 C 8.739077 32.715264 8.744434 32.720591 8.760504 32.715264 C 10.442491 31.969541 11.695946 30.840302 12.070911 28.96534 C 12.135191 28.661724 12.183401 28.315495 12.215541 27.937307 C 12.226254 27.846755 12.220897 27.766856 12.210184 27.686957 C 12.188757 27.553792 12.167331 27.553792 12.140548 27.686957 " stroke="#7b2c15" stroke-width="2" stroke-opacity="1" stroke-miterlimit="4"/></g><g clip-path="url(#bfcc9182e3)"><path fill="#010101" d="M 33.394531 13.257812 C 33.613281 13.25 33.855469 13.277344 34.121094 13.339844 C 34.28125 13.378906 34.449219 13.46875 34.507812 13.628906 C 34.566406 13.789062 34.542969 13.941406 34.4375 14.085938 C 34.125 14.503906 33.824219 14.914062 33.523438 15.316406 C 31.335938 18.273438 29.125 21.210938 26.882812 24.128906 C 26.210938 25.003906 25.414062 26.011719 24.496094 27.160156 C 23.734375 28.117188 22.875 29.125 21.917969 30.1875 C 21.679688 30.449219 21.445312 30.683594 21.214844 30.886719 C 20.839844 31.214844 20.457031 31.152344 20.023438 31.050781 C 19.59375 30.949219 19.105469 30.804688 18.550781 30.621094 C 16.46875 29.925781 14.375 29.148438 12.265625 28.289062 C 11.480469 27.96875 10.671875 27.632812 9.835938 27.289062 C 9.761719 27.257812 9.699219 27.269531 9.636719 27.320312 C 9.167969 27.722656 8.625 27.976562 8.058594 28.246094 C 7.769531 28.382812 7.480469 28.527344 7.1875 28.6875 C 6.792969 28.902344 6.390625 29.101562 5.972656 29.289062 C 5.953125 29.300781 5.949219 29.292969 5.957031 29.273438 C 6.089844 28.945312 6.242188 28.632812 6.417969 28.335938 C 6.457031 28.269531 6.441406 28.222656 6.371094 28.195312 C 6.273438 28.160156 6.167969 28.128906 6.058594 28.105469 C 5.730469 28.03125 5.421875 27.957031 5.125 27.878906 C 5.109375 27.875 5.101562 27.867188 5.097656 27.855469 C 5.097656 27.839844 5.101562 27.828125 5.109375 27.820312 C 5.144531 27.792969 5.183594 27.769531 5.222656 27.753906 C 6.089844 27.417969 6.921875 27.105469 7.640625 26.523438 C 7.667969 26.503906 7.679688 26.476562 7.671875 26.445312 C 7.664062 26.402344 7.640625 26.371094 7.601562 26.351562 C 7.199219 26.15625 6.816406 25.988281 6.453125 25.847656 C 5.644531 25.53125 4.898438 25.175781 4.113281 24.816406 C 3.617188 24.589844 3.109375 24.328125 2.621094 24.070312 C 2.3125 23.90625 2.085938 23.6875 1.941406 23.410156 C 1.484375 22.550781 1.347656 21.6875 1.234375 20.730469 C 1.214844 20.546875 1.214844 20.363281 1.234375 20.179688 C 1.257812 19.953125 1.289062 19.738281 1.320312 19.535156 C 1.394531 19.109375 1.550781 18.71875 1.792969 18.363281 C 1.898438 18.207031 2.078125 18.023438 2.328125 17.8125 C 2.5625 17.617188 2.8125 17.398438 3.074219 17.152344 C 3.375 16.875 3.683594 16.59375 4 16.308594 C 4.585938 15.769531 5.167969 15.242188 5.742188 14.722656 C 6.058594 14.441406 6.363281 14.160156 6.660156 13.886719 C 8.15625 12.5 9.644531 11.128906 11.125 9.765625 C 11.429688 9.488281 11.734375 9.210938 12.042969 8.933594 C 12.894531 8.171875 13.734375 7.386719 14.597656 6.628906 C 15.613281 5.734375 16.601562 4.847656 17.675781 3.972656 C 17.914062 3.777344 18.140625 3.644531 18.347656 3.570312 C 18.492188 3.519531 18.65625 3.59375 18.804688 3.609375 C 19.148438 3.644531 19.5 3.703125 19.859375 3.785156 C 22.214844 4.328125 24.410156 5 26.878906 5.761719 C 29.066406 6.433594 31.3125 7.132812 33.613281 7.859375 C 33.898438 7.949219 34.15625 8.113281 34.390625 8.34375 C 34.644531 8.59375 34.679688 8.867188 34.488281 9.160156 C 34.148438 9.691406 33.820312 10.160156 33.507812 10.558594 C 33.386719 10.71875 33.03125 11.121094 33.019531 11.296875 C 32.996094 11.675781 33.011719 12.085938 33.066406 12.527344 C 33.101562 12.773438 33.1875 13.007812 33.328125 13.226562 C 33.34375 13.25 33.367188 13.257812 33.394531 13.257812 Z M 2.425781 18.421875 C 2.566406 18.308594 2.714844 18.214844 2.898438 18.226562 C 3.078125 18.238281 3.25 18.269531 3.414062 18.324219 C 4.453125 18.679688 5.515625 19.105469 6.519531 19.527344 C 8.847656 20.507812 11.253906 21.523438 13.738281 22.574219 C 15.535156 23.332031 17.410156 24.105469 19.292969 24.71875 C 19.554688 24.804688 19.832031 24.882812 20.128906 24.949219 C 20.324219 24.992188 20.527344 25.027344 20.660156 24.894531 C 21.128906 24.429688 21.5625 23.984375 21.953125 23.558594 C 24.441406 20.855469 26.921875 18.015625 29.386719 15.039062 C 31.121094 12.949219 32.675781 10.996094 34.089844 8.933594 C 34.144531 8.851562 34.15625 8.765625 34.078125 8.695312 C 33.886719 8.511719 33.675781 8.382812 33.441406 8.308594 C 31.292969 7.628906 29.113281 6.949219 26.910156 6.265625 C 24.730469 5.589844 22.535156 4.9375 20.316406 4.386719 C 19.75 4.246094 19.199219 4.140625 18.664062 4.070312 C 18.546875 4.054688 18.371094 4.0625 18.277344 4.128906 C 17.976562 4.339844 17.675781 4.574219 17.371094 4.832031 C 16.410156 5.640625 15.421875 6.5 14.414062 7.40625 C 12.414062 9.210938 9.246094 12.117188 4.917969 16.125 C 4.019531 16.957031 3.183594 17.707031 2.414062 18.378906 C 2.40625 18.386719 2.40625 18.398438 2.414062 18.40625 L 2.421875 18.417969 C 2.421875 18.421875 2.425781 18.421875 2.425781 18.421875 Z M 28.980469 16.5625 C 29.257812 16.210938 29.539062 15.859375 29.816406 15.511719 C 30.941406 14.105469 31.910156 12.894531 32.714844 11.882812 C 32.734375 11.863281 32.746094 11.832031 32.753906 11.789062 C 32.761719 11.757812 32.75 11.730469 32.722656 11.710938 C 32.714844 11.707031 32.707031 11.707031 32.703125 11.714844 C 31.972656 12.667969 31.25 13.578125 30.539062 14.445312 C 28.691406 16.699219 26.757812 18.96875 24.738281 21.25 C 23.695312 22.425781 22.628906 23.59375 21.539062 24.75 C 21.3125 24.992188 21.078125 25.214844 20.84375 25.410156 C 20.753906 25.484375 20.652344 25.515625 20.535156 25.507812 C 20.5 25.507812 20.472656 25.519531 20.457031 25.550781 C 19.75 26.910156 19.847656 28.574219 20.554688 29.894531 C 20.574219 29.929688 20.597656 29.933594 20.625 29.902344 C 20.792969 29.71875 20.949219 29.539062 21.09375 29.359375 C 22.433594 27.71875 23.898438 25.886719 25.488281 23.863281 C 27.601562 21.171875 29.714844 18.464844 31.835938 15.738281 C 32.054688 15.460938 32.289062 15.191406 32.496094 14.902344 C 32.585938 14.777344 32.679688 14.660156 32.78125 14.546875 C 32.828125 14.492188 32.863281 14.4375 32.890625 14.371094 C 32.921875 14.296875 32.910156 14.292969 32.863281 14.355469 C 32.480469 14.839844 32.117188 15.304688 31.714844 15.761719 C 31.707031 15.769531 31.703125 15.769531 31.695312 15.761719 C 31.691406 15.757812 31.691406 15.753906 31.695312 15.746094 C 32.203125 15.078125 32.710938 14.410156 33.222656 13.742188 C 33.242188 13.71875 33.242188 13.691406 33.230469 13.664062 L 33.140625 13.488281 C 33.125 13.460938 33.105469 13.460938 33.085938 13.484375 L 28.808594 18.484375 C 28.800781 18.492188 28.792969 18.492188 28.78125 18.488281 L 28.765625 18.476562 C 28.753906 18.464844 28.75 18.457031 28.761719 18.445312 L 33.03125 13.328125 C 33.035156 13.328125 33.035156 13.324219 33.035156 13.320312 C 33.027344 13.269531 32.96875 13.117188 32.855469 12.863281 C 32.855469 12.859375 32.851562 12.859375 32.847656 12.863281 C 31.222656 14.703125 29.605469 16.554688 27.996094 18.414062 C 27.996094 18.417969 27.992188 18.417969 27.992188 18.414062 L 27.980469 18.40625 C 27.96875 18.398438 27.96875 18.386719 27.976562 18.378906 L 32.753906 12.753906 C 32.792969 12.710938 32.808594 12.65625 32.800781 12.597656 L 32.742188 12.148438 C 32.738281 12.109375 32.722656 12.105469 32.695312 12.132812 C 31.460938 13.605469 30.226562 15.082031 28.992188 16.5625 C 28.988281 16.5625 28.988281 16.566406 28.984375 16.566406 C 28.976562 16.566406 28.976562 16.566406 28.980469 16.5625 Z M 33.914062 13.804688 C 33.910156 13.875 33.886719 13.9375 33.84375 13.992188 C 30.703125 18.039062 27.605469 22.003906 24.542969 25.886719 C 23.441406 27.285156 22.320312 28.671875 21.1875 30.046875 C 21.054688 30.207031 20.824219 30.535156 20.585938 30.5 C 20.390625 30.472656 20.175781 30.421875 19.9375 30.34375 C 18.921875 30.007812 17.875 29.632812 16.800781 29.222656 C 14.585938 28.382812 12.390625 27.515625 10.222656 26.628906 C 10.195312 26.617188 10.175781 26.625 10.164062 26.648438 L 10.066406 26.84375 C 10.050781 26.871094 10.058594 26.890625 10.089844 26.90625 C 12.859375 28.058594 15.769531 29.214844 18.597656 30.15625 C 19.109375 30.328125 19.621094 30.46875 20.128906 30.585938 C 20.257812 30.617188 20.390625 30.636719 20.535156 30.652344 C 20.722656 30.671875 20.875 30.554688 21 30.4375 C 21.304688 30.144531 21.601562 29.855469 21.886719 29.535156 C 22.644531 28.675781 23.332031 27.863281 23.949219 27.09375 C 26.117188 24.382812 28.332031 21.519531 30.589844 18.5 C 31.636719 17.097656 32.730469 15.628906 33.871094 14.09375 C 33.921875 14.023438 33.972656 13.953125 34.015625 13.878906 C 34.035156 13.84375 34.027344 13.816406 33.992188 13.796875 C 33.976562 13.789062 33.960938 13.785156 33.941406 13.78125 C 33.921875 13.78125 33.914062 13.789062 33.914062 13.804688 Z M 11.480469 23.449219 C 11.472656 23.433594 11.457031 23.441406 11.433594 23.46875 C 11.234375 23.554688 11.074219 23.699219 10.957031 23.898438 C 10.804688 24.160156 10.695312 24.445312 10.632812 24.757812 C 10.546875 25.171875 10.457031 25.617188 10.363281 26.097656 C 10.359375 26.117188 10.367188 26.132812 10.382812 26.136719 C 12.992188 27.207031 15.558594 28.214844 18.085938 29.15625 C 18.882812 29.453125 19.664062 29.71875 20.425781 29.957031 C 20.484375 29.972656 20.492188 29.960938 20.449219 29.914062 C 20.191406 29.628906 19.996094 29.269531 19.867188 28.84375 C 19.59375 27.929688 19.613281 27.046875 19.925781 26.191406 C 20.015625 25.949219 20.136719 25.726562 20.285156 25.53125 C 20.300781 25.507812 20.296875 25.492188 20.265625 25.488281 C 20.046875 25.457031 19.828125 25.410156 19.609375 25.347656 C 19.128906 25.210938 18.644531 25.054688 18.164062 24.875 C 16.78125 24.367188 15.390625 23.820312 14 23.238281 C 13.117188 22.871094 12.292969 22.523438 11.523438 22.195312 C 9.457031 21.316406 7.472656 20.480469 5.578125 19.691406 C 5.042969 19.46875 4.425781 19.226562 3.71875 18.96875 C 3.484375 18.882812 3.242188 18.808594 2.988281 18.742188 C 2.917969 18.726562 2.84375 18.734375 2.773438 18.773438 C 2.757812 18.78125 2.75 18.792969 2.753906 18.8125 C 2.753906 18.828125 2.761719 18.839844 2.777344 18.847656 L 6.605469 20.320312 C 6.617188 20.324219 6.621094 20.328125 6.617188 20.339844 L 6.609375 20.355469 C 6.609375 20.359375 6.609375 20.359375 6.605469 20.359375 C 5.292969 19.882812 3.984375 19.410156 2.675781 18.9375 C 2.636719 18.925781 2.605469 18.933594 2.582031 18.96875 C 2.441406 19.160156 2.335938 19.386719 2.261719 19.636719 C 2.253906 19.664062 2.261719 19.679688 2.285156 19.6875 C 3.601562 20.242188 4.949219 20.808594 6.316406 21.382812 C 6.460938 21.445312 6.601562 21.503906 6.738281 21.566406 C 6.867188 21.625 7.007812 21.683594 7.160156 21.742188 C 7.574219 21.910156 7.984375 22.078125 8.390625 22.25 C 8.398438 22.253906 8.402344 22.257812 8.398438 22.265625 L 8.394531 22.28125 C 8.390625 22.285156 8.390625 22.285156 8.386719 22.28125 C 6.382812 21.464844 4.335938 20.644531 2.25 19.820312 C 2.222656 19.808594 2.210938 19.816406 2.207031 19.84375 L 2.144531 20.519531 C 2.140625 20.558594 2.15625 20.589844 2.195312 20.605469 C 3.5 21.179688 4.800781 21.757812 6.09375 22.335938 C 6.496094 22.515625 6.902344 22.6875 7.308594 22.855469 C 7.316406 22.859375 7.320312 22.863281 7.316406 22.871094 C 7.3125 22.878906 7.304688 22.882812 7.296875 22.878906 C 5.640625 22.183594 3.949219 21.476562 2.226562 20.753906 C 2.1875 20.742188 2.171875 20.753906 2.175781 20.792969 C 2.207031 21.019531 2.261719 21.261719 2.339844 21.511719 C 2.351562 21.550781 2.375 21.574219 2.410156 21.589844 L 7.992188 23.929688 C 8.03125 23.949219 8.03125 23.957031 7.988281 23.960938 C 7.953125 23.964844 7.917969 23.957031 7.886719 23.945312 C 6.066406 23.183594 4.261719 22.457031 2.472656 21.753906 C 2.4375 21.742188 2.429688 21.75 2.441406 21.785156 C 2.53125 21.984375 2.765625 22.476562 2.945312 22.5625 C 4.003906 23.050781 5.027344 23.523438 6.015625 23.984375 C 6.484375 24.203125 6.9375 24.414062 7.367188 24.609375 C 7.371094 24.609375 7.371094 24.609375 7.371094 24.613281 L 7.363281 24.628906 C 7.355469 24.640625 7.347656 24.644531 7.335938 24.640625 L 3.175781 22.769531 C 3.0625 22.71875 3.050781 22.738281 3.140625 22.824219 C 3.265625 22.941406 3.390625 23.035156 3.515625 23.101562 C 4.011719 23.371094 4.613281 23.660156 5.320312 23.976562 C 6.5 24.503906 7.578125 24.972656 8.558594 25.382812 C 8.574219 25.386719 8.585938 25.382812 8.59375 25.371094 C 8.871094 24.949219 9.144531 24.421875 9.1875 23.910156 C 9.230469 23.378906 9.285156 22.910156 9.652344 22.539062 C 9.808594 22.378906 10 22.1875 10.191406 22.042969 C 10.222656 22.023438 10.21875 22.003906 10.1875 21.992188 C 9.964844 21.890625 9.738281 21.789062 9.511719 21.675781 C 9.503906 21.671875 9.503906 21.667969 9.503906 21.660156 C 9.507812 21.65625 9.511719 21.652344 9.519531 21.65625 C 10.53125 21.984375 11.464844 22.484375 12.4375 22.898438 C 13.5625 23.378906 14.515625 23.796875 15.296875 24.152344 C 15.398438 24.199219 15.5 24.246094 15.597656 24.292969 C 15.601562 24.296875 15.605469 24.300781 15.601562 24.308594 C 15.597656 24.316406 15.59375 24.316406 15.585938 24.316406 C 14.566406 23.921875 13.59375 23.488281 12.605469 23.050781 C 12.574219 23.035156 12.542969 23.035156 12.507812 23.042969 C 12.164062 23.136719 11.832031 23.261719 11.507812 23.410156 C 11.5 23.414062 11.492188 23.425781 11.480469 23.449219 Z M 3.414062 23.640625 C 2.65625 23.269531 2.09375 22.460938 1.84375 21.632812 C 1.84375 21.628906 1.839844 21.628906 1.835938 21.628906 L 1.820312 21.632812 C 1.804688 21.636719 1.800781 21.644531 1.804688 21.65625 C 1.859375 22 1.945312 22.332031 2.070312 22.648438 C 2.1875 22.960938 2.359375 23.238281 2.585938 23.480469 C 2.777344 23.6875 3.039062 23.824219 3.296875 23.945312 C 4.859375 24.675781 6.429688 25.371094 8.011719 26.03125 C 8.054688 26.050781 8.089844 26.042969 8.117188 26.003906 L 8.238281 25.863281 C 8.265625 25.828125 8.261719 25.804688 8.21875 25.785156 C 6.5625 25.117188 4.964844 24.402344 3.414062 23.640625 Z M 10.894531 23.253906 C 10.890625 23.246094 10.886719 23.242188 10.894531 23.234375 C 11.03125 23.074219 11.183594 22.9375 11.34375 22.824219 C 11.371094 22.808594 11.371094 22.789062 11.34375 22.773438 L 11.320312 22.757812 C 11.296875 22.738281 11.269531 22.738281 11.242188 22.753906 C 11.015625 22.90625 10.855469 23.050781 10.710938 23.261719 C 10.695312 23.285156 10.683594 23.285156 10.675781 23.257812 C 10.671875 23.246094 10.671875 23.238281 10.679688 23.226562 C 10.777344 23.054688 10.925781 22.882812 11.125 22.710938 C 11.136719 22.699219 11.136719 22.6875 11.125 22.675781 L 11.113281 22.660156 C 11.089844 22.636719 11.066406 22.632812 11.039062 22.652344 C 10.871094 22.761719 10.726562 22.894531 10.605469 23.050781 C 10.597656 23.058594 10.59375 23.058594 10.585938 23.054688 C 10.582031 23.050781 10.582031 23.046875 10.585938 23.042969 C 10.675781 22.886719 10.789062 22.75 10.929688 22.632812 C 10.964844 22.605469 10.960938 22.585938 10.917969 22.570312 L 10.886719 22.5625 C 10.855469 22.550781 10.824219 22.558594 10.796875 22.582031 C 10.644531 22.714844 10.507812 22.859375 10.386719 23.019531 C 10.382812 23.023438 10.375 23.027344 10.367188 23.019531 C 10.363281 23.015625 10.359375 23.011719 10.363281 23.003906 C 10.464844 22.835938 10.589844 22.6875 10.730469 22.554688 C 10.75 22.535156 10.746094 22.519531 10.726562 22.507812 L 10.691406 22.488281 C 10.671875 22.476562 10.652344 22.480469 10.636719 22.496094 L 10.4375 22.691406 C 10.429688 22.699219 10.421875 22.699219 10.414062 22.691406 L 10.402344 22.679688 C 10.402344 22.679688 10.402344 22.675781 10.402344 22.671875 C 10.457031 22.613281 10.511719 22.550781 10.5625 22.480469 C 10.585938 22.453125 10.582031 22.425781 10.546875 22.398438 C 10.519531 22.378906 10.492188 22.382812 10.46875 22.402344 L 10.089844 22.734375 C 10.089844 22.738281 10.085938 22.738281 10.085938 22.734375 L 10.070312 22.722656 C 10.058594 22.710938 10.058594 22.699219 10.070312 22.6875 L 10.375 22.394531 C 10.386719 22.378906 10.390625 22.363281 10.378906 22.347656 L 10.367188 22.328125 C 10.359375 22.308594 10.34375 22.308594 10.332031 22.320312 C 10.152344 22.46875 9.988281 22.628906 9.835938 22.804688 C 9.65625 23.007812 9.554688 23.253906 9.535156 23.546875 C 9.519531 23.800781 9.488281 24.027344 9.449219 24.238281 C 9.410156 24.433594 9.332031 24.652344 9.214844 24.898438 C 8.695312 25.988281 7.910156 26.8125 6.859375 27.378906 C 6.527344 27.558594 6.222656 27.683594 5.949219 27.753906 C 5.941406 27.757812 5.9375 27.757812 5.929688 27.761719 C 5.925781 27.769531 5.921875 27.777344 5.921875 27.785156 C 5.925781 27.800781 5.9375 27.8125 5.953125 27.816406 L 6.964844 27.945312 C 6.976562 27.945312 6.980469 27.953125 6.972656 27.960938 C 6.792969 28.269531 6.617188 28.546875 6.441406 28.800781 C 6.4375 28.8125 6.441406 28.820312 6.464844 28.832031 C 6.476562 28.839844 6.488281 28.839844 6.496094 28.832031 C 6.730469 28.675781 6.960938 28.527344 7.191406 28.386719 C 7.683594 28.085938 8.214844 27.867188 8.710938 27.617188 C 9.417969 27.257812 9.886719 26.800781 10.058594 25.992188 C 10.144531 25.582031 10.222656 25.195312 10.296875 24.832031 C 10.367188 24.476562 10.480469 24.097656 10.664062 23.777344 C 10.882812 23.398438 11.230469 23.140625 11.710938 23 C 11.722656 22.996094 11.726562 22.988281 11.730469 22.972656 C 11.730469 22.960938 11.726562 22.953125 11.714844 22.945312 L 11.550781 22.867188 C 11.507812 22.84375 11.46875 22.847656 11.429688 22.871094 C 11.25 22.980469 11.082031 23.113281 10.929688 23.265625 C 10.921875 23.273438 10.914062 23.273438 10.90625 23.265625 Z M 10.894531 23.253906 " fill-opacity="1" fill-rule="nonzero"/></g><g clip-path="url(#7ca4527537)"><path fill="#794e23" d="M 2.898438 18.226562 C 2.714844 18.214844 2.566406 18.308594 2.425781 18.421875 C 2.425781 18.421875 2.421875 18.421875 2.421875 18.417969 L 2.414062 18.40625 C 2.40625 18.398438 2.40625 18.386719 2.414062 18.378906 C 3.183594 17.707031 4.019531 16.957031 4.917969 16.125 C 9.246094 12.117188 12.414062 9.210938 14.414062 7.40625 C 15.421875 6.5 16.410156 5.640625 17.371094 4.832031 C 17.675781 4.574219 17.976562 4.339844 18.277344 4.128906 C 18.371094 4.0625 18.546875 4.054688 18.664062 4.070312 C 19.199219 4.140625 19.75 4.246094 20.316406 4.386719 C 22.535156 4.9375 24.730469 5.589844 26.910156 6.265625 C 29.113281 6.949219 31.292969 7.628906 33.441406 8.308594 C 33.675781 8.382812 33.886719 8.511719 34.078125 8.695312 C 34.15625 8.765625 34.144531 8.851562 34.089844 8.933594 C 32.675781 10.996094 31.121094 12.949219 29.386719 15.039062 C 26.921875 18.015625 24.441406 20.855469 21.953125 23.558594 C 21.5625 23.984375 21.128906 24.429688 20.660156 24.894531 C 20.527344 25.027344 20.324219 24.992188 20.128906 24.949219 C 19.832031 24.882812 19.554688 24.804688 19.292969 24.71875 C 17.410156 24.105469 15.535156 23.332031 13.738281 22.574219 C 11.253906 21.523438 8.847656 20.507812 6.519531 19.527344 C 5.515625 19.105469 4.453125 18.679688 3.414062 18.324219 C 3.25 18.269531 3.078125 18.238281 2.898438 18.226562 Z M 29.035156 11.347656 C 29.058594 11.324219 29.054688 11.308594 29.023438 11.296875 L 24.582031 9.808594 C 24.550781 9.800781 24.546875 9.78125 24.570312 9.757812 L 26.570312 7.796875 C 26.59375 7.773438 26.589844 7.753906 26.554688 7.746094 L 23.394531 6.6875 C 23.382812 6.683594 23.371094 6.683594 23.363281 6.695312 L 21.386719 8.714844 C 21.378906 8.722656 21.367188 8.726562 21.355469 8.722656 L 17.25 7.304688 C 17.238281 7.300781 17.226562 7.304688 17.21875 7.3125 L 15.339844 9.207031 C 15.316406 9.230469 15.320312 9.25 15.351562 9.257812 L 19.417969 10.59375 C 19.449219 10.605469 19.453125 10.621094 19.429688 10.644531 L 13.667969 16.4375 C 13.644531 16.460938 13.648438 16.476562 13.679688 16.488281 L 16.8125 17.597656 C 16.824219 17.601562 16.835938 17.597656 16.84375 17.589844 L 22.636719 11.683594 C 22.644531 11.675781 22.65625 11.671875 22.667969 11.679688 L 27.121094 13.207031 C 27.132812 13.210938 27.144531 13.210938 27.152344 13.199219 Z M 29.035156 11.347656 " fill-opacity="1" fill-rule="nonzero"/></g><path fill="#010101" d="M 29.035156 11.347656 L 27.152344 13.199219 C 27.144531 13.210938 27.132812 13.210938 27.121094 13.207031 L 22.667969 11.679688 C 22.65625 11.671875 22.644531 11.675781 22.636719 11.683594 L 16.84375 17.589844 C 16.835938 17.597656 16.824219 17.601562 16.8125 17.597656 L 13.679688 16.488281 C 13.648438 16.476562 13.644531 16.460938 13.667969 16.4375 L 19.429688 10.644531 C 19.453125 10.621094 19.449219 10.605469 19.417969 10.59375 L 15.351562 9.257812 C 15.320312 9.25 15.316406 9.230469 15.339844 9.207031 L 17.21875 7.3125 C 17.226562 7.304688 17.238281 7.300781 17.25 7.304688 L 21.355469 8.722656 C 21.367188 8.726562 21.378906 8.722656 21.386719 8.714844 L 23.363281 6.695312 C 23.371094 6.683594 23.382812 6.683594 23.394531 6.6875 L 26.554688 7.746094 C 26.589844 7.753906 26.59375 7.773438 26.570312 7.796875 L 24.570312 9.757812 C 24.546875 9.78125 24.550781 9.800781 24.582031 9.808594 L 29.023438 11.296875 C 29.054688 11.308594 29.058594 11.324219 29.035156 11.347656 Z M 23.980469 9.890625 L 25.976562 7.941406 C 26.007812 7.910156 26.003906 7.890625 25.960938 7.875 L 23.496094 7.050781 C 23.472656 7.042969 23.453125 7.046875 23.4375 7.0625 L 21.480469 9.0625 C 21.464844 9.078125 21.445312 9.085938 21.425781 9.078125 L 17.347656 7.667969 C 17.328125 7.660156 17.316406 7.664062 17.300781 7.675781 L 15.917969 9.074219 C 15.902344 9.09375 15.902344 9.105469 15.929688 9.113281 C 17.289062 9.570312 18.625 10.007812 19.929688 10.417969 C 19.953125 10.425781 19.976562 10.433594 20 10.441406 C 20.039062 10.457031 20.046875 10.476562 20.015625 10.507812 L 14.238281 16.3125 C 14.214844 16.332031 14.21875 16.347656 14.246094 16.355469 L 16.707031 17.226562 C 16.734375 17.234375 16.757812 17.230469 16.777344 17.207031 L 22.542969 11.335938 C 22.558594 11.320312 22.574219 11.3125 22.597656 11.320312 L 27.023438 12.84375 C 27.042969 12.851562 27.0625 12.847656 27.078125 12.832031 L 28.460938 11.480469 C 28.480469 11.460938 28.476562 11.445312 28.453125 11.4375 L 23.992188 9.9375 C 23.960938 9.929688 23.957031 9.914062 23.980469 9.890625 Z M 23.980469 9.890625 " fill-opacity="1" fill-rule="nonzero"/><path fill="#ffda78" d="M 23.992188 9.9375 L 28.453125 11.4375 C 28.476562 11.445312 28.480469 11.460938 28.460938 11.480469 L 27.078125 12.832031 C 27.0625 12.847656 27.042969 12.851562 27.023438 12.84375 L 22.597656 11.320312 C 22.574219 11.3125 22.558594 11.320312 22.542969 11.335938 L 16.777344 17.207031 C 16.757812 17.230469 16.734375 17.234375 16.707031 17.226562 L 14.246094 16.355469 C 14.21875 16.347656 14.214844 16.332031 14.238281 16.3125 L 20.015625 10.507812 C 20.046875 10.476562 20.039062 10.457031 20 10.441406 C 19.976562 10.433594 19.953125 10.425781 19.929688 10.417969 C 18.625 10.007812 17.289062 9.570312 15.929688 9.113281 C 15.902344 9.105469 15.902344 9.09375 15.917969 9.074219 L 17.300781 7.675781 C 17.316406 7.664062 17.328125 7.660156 17.347656 7.667969 L 21.425781 9.078125 C 21.445312 9.085938 21.464844 9.078125 21.480469 9.0625 L 23.4375 7.0625 C 23.453125 7.046875 23.472656 7.042969 23.496094 7.050781 L 25.960938 7.875 C 26.003906 7.890625 26.007812 7.910156 25.976562 7.941406 L 23.980469 9.890625 C 23.957031 9.914062 23.960938 9.929688 23.992188 9.9375 Z M 23.992188 9.9375 " fill-opacity="1" fill-rule="nonzero"/><path fill="#fff4c8" d="M 28.984375 16.566406 C 28.988281 16.566406 28.988281 16.5625 28.992188 16.5625 C 30.226562 15.082031 31.460938 13.605469 32.695312 12.132812 C 32.722656 12.105469 32.738281 12.109375 32.742188 12.148438 L 32.800781 12.597656 C 32.808594 12.65625 32.792969 12.710938 32.753906 12.753906 L 27.976562 18.378906 C 27.96875 18.386719 27.96875 18.398438 27.980469 18.40625 L 27.992188 18.414062 C 27.992188 18.417969 27.996094 18.417969 27.996094 18.414062 C 29.605469 16.554688 31.222656 14.703125 32.847656 12.863281 C 32.851562 12.859375 32.855469 12.859375 32.855469 12.863281 C 32.96875 13.117188 33.027344 13.269531 33.035156 13.320312 C 33.035156 13.324219 33.035156 13.328125 33.03125 13.328125 L 28.761719 18.445312 C 28.75 18.457031 28.753906 18.464844 28.765625 18.476562 L 28.78125 18.488281 C 28.792969 18.492188 28.800781 18.492188 28.808594 18.484375 L 33.085938 13.484375 C 33.105469 13.460938 33.125 13.460938 33.140625 13.488281 L 33.230469 13.664062 C 33.242188 13.691406 33.242188 13.71875 33.222656 13.742188 C 32.710938 14.410156 32.203125 15.078125 31.695312 15.746094 C 31.691406 15.753906 31.691406 15.757812 31.695312 15.761719 C 31.703125 15.769531 31.707031 15.769531 31.714844 15.761719 C 32.117188 15.304688 32.480469 14.839844 32.863281 14.355469 C 32.910156 14.292969 32.921875 14.296875 32.890625 14.371094 C 32.863281 14.4375 32.828125 14.492188 32.78125 14.546875 C 32.679688 14.660156 32.585938 14.777344 32.496094 14.902344 C 32.289062 15.191406 32.054688 15.460938 31.835938 15.738281 C 29.714844 18.464844 27.601562 21.171875 25.488281 23.863281 C 23.898438 25.886719 22.433594 27.71875 21.09375 29.359375 C 20.949219 29.539062 20.792969 29.71875 20.625 29.902344 C 20.597656 29.933594 20.574219 29.929688 20.554688 29.894531 C 19.847656 28.574219 19.75 26.910156 20.457031 25.550781 C 20.472656 25.519531 20.5 25.507812 20.535156 25.507812 C 20.652344 25.515625 20.753906 25.484375 20.84375 25.410156 C 21.078125 25.214844 21.3125 24.992188 21.539062 24.75 C 22.628906 23.59375 23.695312 22.425781 24.738281 21.25 C 26.757812 18.96875 28.691406 16.699219 30.539062 14.445312 C 31.25 13.578125 31.972656 12.667969 32.703125 11.714844 C 32.707031 11.707031 32.714844 11.707031 32.722656 11.710938 C 32.75 11.730469 32.761719 11.757812 32.753906 11.789062 C 32.746094 11.832031 32.734375 11.863281 32.714844 11.882812 C 31.910156 12.894531 30.941406 14.105469 29.816406 15.511719 C 29.539062 15.859375 29.257812 16.210938 28.980469 16.5625 C 28.976562 16.566406 28.976562 16.566406 28.984375 16.566406 Z M 28.984375 16.566406 " fill-opacity="1" fill-rule="nonzero"/><g clip-path="url(#fe14e7cee8)"><path fill="#794e23" d="M 33.914062 13.804688 C 33.914062 13.789062 33.921875 13.78125 33.941406 13.78125 C 33.960938 13.785156 33.976562 13.789062 33.992188 13.796875 C 34.027344 13.816406 34.035156 13.84375 34.015625 13.878906 C 33.972656 13.953125 33.921875 14.023438 33.871094 14.09375 C 32.730469 15.628906 31.636719 17.097656 30.589844 18.5 C 28.332031 21.519531 26.117188 24.382812 23.949219 27.09375 C 23.332031 27.863281 22.644531 28.675781 21.886719 29.535156 C 21.601562 29.855469 21.304688 30.144531 21 30.4375 C 20.875 30.554688 20.722656 30.671875 20.535156 30.652344 C 20.390625 30.636719 20.257812 30.617188 20.128906 30.585938 C 19.621094 30.46875 19.109375 30.328125 18.597656 30.15625 C 15.769531 29.214844 12.859375 28.058594 10.089844 26.90625 C 10.058594 26.890625 10.050781 26.871094 10.066406 26.84375 L 10.164062 26.648438 C 10.175781 26.625 10.195312 26.617188 10.222656 26.628906 C 12.390625 27.515625 14.585938 28.382812 16.800781 29.222656 C 17.875 29.632812 18.921875 30.007812 19.9375 30.34375 C 20.175781 30.421875 20.390625 30.472656 20.585938 30.5 C 20.824219 30.535156 21.054688 30.207031 21.1875 30.046875 C 22.320312 28.671875 23.441406 27.285156 24.542969 25.886719 C 27.605469 22.003906 30.703125 18.039062 33.84375 13.992188 C 33.886719 13.9375 33.910156 13.875 33.914062 13.804688 Z M 33.914062 13.804688 " fill-opacity="1" fill-rule="nonzero"/></g><path fill="#fff4c8" d="M 11.433594 23.46875 C 11.835938 23.65625 12.234375 23.828125 12.636719 23.988281 C 13.910156 24.496094 15.195312 25.007812 16.492188 25.527344 C 16.664062 25.59375 17.027344 25.726562 17.570312 25.917969 C 17.578125 25.921875 17.578125 25.917969 17.582031 25.914062 L 17.585938 25.898438 C 17.589844 25.886719 17.585938 25.878906 17.574219 25.871094 L 11.480469 23.449219 C 11.492188 23.425781 11.5 23.414062 11.507812 23.410156 C 11.832031 23.261719 12.164062 23.136719 12.507812 23.042969 C 12.542969 23.035156 12.574219 23.035156 12.605469 23.050781 C 13.59375 23.488281 14.566406 23.921875 15.585938 24.316406 C 15.59375 24.316406 15.597656 24.316406 15.601562 24.308594 C 15.605469 24.300781 15.601562 24.296875 15.597656 24.292969 C 15.5 24.246094 15.398438 24.199219 15.296875 24.152344 C 14.515625 23.796875 13.5625 23.378906 12.4375 22.898438 C 11.464844 22.484375 10.53125 21.984375 9.519531 21.65625 C 9.511719 21.652344 9.507812 21.65625 9.503906 21.660156 C 9.503906 21.667969 9.503906 21.671875 9.511719 21.675781 C 9.738281 21.789062 9.964844 21.890625 10.1875 21.992188 C 10.21875 22.003906 10.222656 22.023438 10.191406 22.042969 C 10 22.1875 9.808594 22.378906 9.652344 22.539062 C 9.285156 22.910156 9.230469 23.378906 9.1875 23.910156 C 9.144531 24.421875 8.871094 24.949219 8.59375 25.371094 C 8.585938 25.382812 8.574219 25.386719 8.558594 25.382812 C 7.578125 24.972656 6.5 24.503906 5.320312 23.976562 C 4.613281 23.660156 4.011719 23.371094 3.515625 23.101562 C 3.390625 23.035156 3.265625 22.941406 3.140625 22.824219 C 3.050781 22.738281 3.0625 22.71875 3.175781 22.769531 L 7.335938 24.640625 C 7.347656 24.644531 7.355469 24.640625 7.363281 24.628906 L 7.371094 24.613281 C 7.371094 24.609375 7.371094 24.609375 7.367188 24.609375 C 6.9375 24.414062 6.484375 24.203125 6.015625 23.984375 C 5.027344 23.523438 4.003906 23.050781 2.945312 22.5625 C 2.765625 22.476562 2.53125 21.984375 2.441406 21.785156 C 2.429688 21.75 2.4375 21.742188 2.472656 21.753906 C 4.261719 22.457031 6.066406 23.183594 7.886719 23.945312 C 7.917969 23.957031 7.953125 23.964844 7.988281 23.960938 C 8.03125 23.957031 8.03125 23.949219 7.992188 23.929688 L 2.410156 21.589844 C 2.375 21.574219 2.351562 21.550781 2.339844 21.511719 C 2.261719 21.261719 2.207031 21.019531 2.175781 20.792969 C 2.171875 20.753906 2.1875 20.742188 2.226562 20.753906 C 3.949219 21.476562 5.640625 22.183594 7.296875 22.878906 C 7.304688 22.882812 7.3125 22.878906 7.316406 22.871094 C 7.320312 22.863281 7.316406 22.859375 7.308594 22.855469 C 6.902344 22.6875 6.496094 22.515625 6.09375 22.335938 C 4.800781 21.757812 3.5 21.179688 2.195312 20.605469 C 2.15625 20.589844 2.140625 20.558594 2.144531 20.519531 L 2.207031 19.84375 C 2.210938 19.816406 2.222656 19.808594 2.25 19.820312 C 4.335938 20.644531 6.382812 21.464844 8.386719 22.28125 C 8.390625 22.285156 8.390625 22.285156 8.394531 22.28125 L 8.398438 22.265625 C 8.402344 22.257812 8.398438 22.253906 8.390625 22.25 C 7.984375 22.078125 7.574219 21.910156 7.160156 21.742188 C 7.007812 21.683594 6.867188 21.625 6.738281 21.566406 C 6.601562 21.503906 6.460938 21.445312 6.316406 21.382812 C 4.949219 20.808594 3.601562 20.242188 2.285156 19.6875 C 2.261719 19.679688 2.253906 19.664062 2.261719 19.636719 C 2.335938 19.386719 2.441406 19.160156 2.582031 18.96875 C 2.605469 18.933594 2.636719 18.925781 2.675781 18.9375 C 3.984375 19.410156 5.292969 19.882812 6.605469 20.359375 C 6.609375 20.359375 6.609375 20.359375 6.609375 20.355469 L 6.617188 20.339844 C 6.621094 20.328125 6.617188 20.324219 6.605469 20.320312 L 2.777344 18.847656 C 2.761719 18.839844 2.753906 18.828125 2.753906 18.8125 C 2.75 18.792969 2.757812 18.78125 2.773438 18.773438 C 2.84375 18.734375 2.917969 18.726562 2.988281 18.742188 C 3.242188 18.808594 3.484375 18.882812 3.71875 18.96875 C 4.425781 19.226562 5.042969 19.46875 5.578125 19.691406 C 7.472656 20.480469 9.457031 21.316406 11.523438 22.195312 C 12.292969 22.523438 13.117188 22.871094 14 23.238281 C 15.390625 23.820312 16.78125 24.367188 18.164062 24.875 C 18.644531 25.054688 19.128906 25.210938 19.609375 25.347656 C 19.828125 25.410156 20.046875 25.457031 20.265625 25.488281 C 20.296875 25.492188 20.300781 25.507812 20.285156 25.53125 C 20.136719 25.726562 20.015625 25.949219 19.925781 26.191406 C 19.613281 27.046875 19.59375 27.929688 19.867188 28.84375 C 19.996094 29.269531 20.191406 29.628906 20.449219 29.914062 C 20.492188 29.960938 20.484375 29.972656 20.425781 29.957031 C 19.664062 29.71875 18.882812 29.453125 18.085938 29.15625 C 15.558594 28.214844 12.992188 27.207031 10.382812 26.136719 C 10.367188 26.132812 10.359375 26.117188 10.363281 26.097656 C 10.457031 25.617188 10.546875 25.171875 10.632812 24.757812 C 10.695312 24.445312 10.804688 24.160156 10.957031 23.898438 C 11.074219 23.699219 11.234375 23.554688 11.433594 23.46875 Z M 12.882812 25.445312 C 12.886719 25.433594 12.800781 25.390625 12.621094 25.3125 C 12.4375 25.238281 12.21875 25.148438 11.960938 25.054688 C 11.703125 24.957031 11.480469 24.878906 11.292969 24.820312 C 11.109375 24.761719 11.011719 24.738281 11.007812 24.75 C 11.003906 24.761719 11.09375 24.804688 11.273438 24.882812 C 11.453125 24.957031 11.671875 25.042969 11.929688 25.140625 C 12.1875 25.238281 12.410156 25.316406 12.597656 25.375 C 12.78125 25.433594 12.878906 25.457031 12.882812 25.445312 Z M 18.167969 27.304688 C 18.175781 27.292969 18.171875 27.285156 18.160156 27.28125 L 13.808594 25.53125 C 13.796875 25.527344 13.789062 25.53125 13.785156 25.539062 L 13.773438 25.566406 C 13.769531 25.578125 13.773438 25.585938 13.785156 25.589844 L 18.136719 27.339844 C 18.148438 27.34375 18.15625 27.339844 18.160156 27.328125 Z M 11.644531 26.257812 C 12.308594 26.558594 13.011719 26.855469 13.746094 27.15625 C 14.90625 27.628906 16.085938 28.105469 17.289062 28.589844 C 17.566406 28.703125 17.84375 28.808594 18.117188 28.90625 C 18.40625 29.011719 18.683594 29.109375 18.945312 29.203125 C 18.949219 29.203125 18.949219 29.203125 18.953125 29.199219 L 18.957031 29.1875 C 18.960938 29.175781 18.957031 29.171875 18.949219 29.167969 C 17.703125 28.644531 16.445312 28.160156 15.199219 27.644531 C 13.914062 27.113281 12.671875 26.605469 11.472656 26.121094 C 11.390625 26.089844 11.386719 26.097656 11.457031 26.152344 C 11.496094 26.183594 11.558594 26.21875 11.644531 26.257812 Z M 11.644531 26.257812 " fill-opacity="1" fill-rule="nonzero"/><g clip-path="url(#5e600341b1)"><path fill="#794e23" d="M 3.414062 23.640625 C 4.964844 24.402344 6.5625 25.117188 8.21875 25.785156 C 8.261719 25.804688 8.265625 25.828125 8.238281 25.863281 L 8.117188 26.003906 C 8.089844 26.042969 8.054688 26.050781 8.011719 26.03125 C 6.429688 25.371094 4.859375 24.675781 3.296875 23.945312 C 3.039062 23.824219 2.777344 23.6875 2.585938 23.480469 C 2.359375 23.238281 2.1875 22.960938 2.070312 22.648438 C 1.945312 22.332031 1.859375 22 1.804688 21.65625 C 1.800781 21.644531 1.804688 21.636719 1.820312 21.632812 L 1.835938 21.628906 C 1.839844 21.628906 1.84375 21.628906 1.84375 21.632812 C 2.09375 22.460938 2.65625 23.269531 3.414062 23.640625 Z M 3.414062 23.640625 " fill-opacity="1" fill-rule="nonzero"/></g><path fill="#f45728" d="M 10.894531 23.253906 L 10.90625 23.265625 C 10.914062 23.273438 10.921875 23.273438 10.929688 23.265625 C 11.082031 23.113281 11.25 22.980469 11.429688 22.871094 C 11.46875 22.847656 11.507812 22.84375 11.550781 22.867188 L 11.714844 22.945312 C 11.726562 22.953125 11.730469 22.960938 11.730469 22.972656 C 11.726562 22.988281 11.722656 22.996094 11.710938 23 C 11.230469 23.140625 10.882812 23.398438 10.664062 23.777344 C 10.480469 24.097656 10.367188 24.476562 10.296875 24.832031 C 10.222656 25.195312 10.144531 25.582031 10.058594 25.992188 C 9.886719 26.800781 9.417969 27.257812 8.710938 27.617188 C 8.214844 27.867188 7.683594 28.085938 7.191406 28.386719 C 6.960938 28.527344 6.730469 28.675781 6.496094 28.832031 C 6.488281 28.839844 6.476562 28.839844 6.464844 28.832031 C 6.441406 28.820312 6.4375 28.8125 6.441406 28.800781 C 6.617188 28.546875 6.792969 28.269531 6.972656 27.960938 C 6.980469 27.953125 6.976562 27.945312 6.964844 27.945312 L 5.953125 27.816406 C 5.9375 27.8125 5.925781 27.800781 5.921875 27.785156 C 5.921875 27.777344 5.925781 27.769531 5.929688 27.761719 C 5.9375 27.757812 5.941406 27.757812 5.949219 27.753906 C 6.222656 27.683594 6.527344 27.558594 6.859375 27.378906 C 7.910156 26.8125 8.695312 25.988281 9.214844 24.898438 C 9.332031 24.652344 9.410156 24.433594 9.449219 24.238281 C 9.488281 24.027344 9.519531 23.800781 9.535156 23.546875 C 9.554688 23.253906 9.65625 23.007812 9.835938 22.804688 C 9.988281 22.628906 10.152344 22.46875 10.332031 22.320312 C 10.34375 22.308594 10.359375 22.308594 10.367188 22.328125 L 10.378906 22.347656 C 10.390625 22.363281 10.386719 22.378906 10.375 22.394531 L 10.070312 22.6875 C 10.058594 22.699219 10.058594 22.710938 10.070312 22.722656 L 10.085938 22.734375 C 10.085938 22.738281 10.089844 22.738281 10.089844 22.734375 L 10.46875 22.402344 C 10.492188 22.382812 10.519531 22.378906 10.546875 22.398438 C 10.582031 22.425781 10.585938 22.453125 10.5625 22.480469 C 10.511719 22.550781 10.457031 22.613281 10.402344 22.671875 C 10.402344 22.675781 10.402344 22.679688 10.402344 22.679688 L 10.414062 22.691406 C 10.421875 22.699219 10.429688 22.699219 10.4375 22.691406 L 10.636719 22.496094 C 10.652344 22.480469 10.671875 22.476562 10.691406 22.488281 L 10.726562 22.507812 C 10.746094 22.519531 10.75 22.535156 10.730469 22.554688 C 10.589844 22.6875 10.464844 22.835938 10.363281 23.003906 C 10.359375 23.011719 10.363281 23.015625 10.367188 23.019531 C 10.375 23.027344 10.382812 23.023438 10.386719 23.019531 C 10.507812 22.859375 10.644531 22.714844 10.796875 22.582031 C 10.824219 22.558594 10.855469 22.550781 10.886719 22.5625 L 10.917969 22.570312 C 10.960938 22.585938 10.964844 22.605469 10.929688 22.632812 C 10.789062 22.75 10.675781 22.886719 10.585938 23.042969 C 10.582031 23.046875 10.582031 23.050781 10.585938 23.054688 C 10.59375 23.058594 10.597656 23.058594 10.605469 23.050781 C 10.726562 22.894531 10.871094 22.761719 11.039062 22.652344 C 11.066406 22.632812 11.089844 22.636719 11.113281 22.660156 L 11.125 22.675781 C 11.136719 22.6875 11.136719 22.699219 11.125 22.710938 C 10.925781 22.882812 10.777344 23.054688 10.679688 23.226562 C 10.671875 23.238281 10.671875 23.246094 10.675781 23.257812 C 10.683594 23.285156 10.695312 23.285156 10.710938 23.261719 C 10.855469 23.050781 11.015625 22.90625 11.242188 22.753906 C 11.269531 22.738281 11.296875 22.738281 11.320312 22.757812 L 11.34375 22.773438 C 11.371094 22.789062 11.371094 22.808594 11.34375 22.824219 C 11.183594 22.9375 11.03125 23.074219 10.894531 23.234375 C 10.886719 23.242188 10.890625 23.246094 10.894531 23.253906 Z M 10.035156 23.847656 C 10.003906 24.019531 9.976562 24.199219 9.945312 24.382812 C 9.78125 25.421875 9.289062 26.253906 8.476562 26.882812 C 8.214844 27.085938 7.90625 27.292969 7.542969 27.503906 C 7.539062 27.507812 7.539062 27.507812 7.542969 27.511719 L 7.546875 27.527344 C 7.554688 27.535156 7.558594 27.539062 7.570312 27.535156 C 8.796875 26.988281 9.710938 26.160156 9.984375 24.785156 C 10.03125 24.5625 10.066406 24.308594 10.089844 24.03125 C 10.097656 23.964844 10.09375 23.90625 10.085938 23.847656 C 10.070312 23.75 10.054688 23.75 10.035156 23.847656 Z M 10.035156 23.847656 " fill-opacity="1" fill-rule="nonzero"/><path fill="#794e23" d="M 11.480469 23.449219 L 17.574219 25.871094 C 17.585938 25.878906 17.589844 25.886719 17.585938 25.898438 L 17.582031 25.914062 C 17.578125 25.917969 17.578125 25.921875 17.570312 25.917969 C 17.027344 25.726562 16.664062 25.59375 16.492188 25.527344 C 15.195312 25.007812 13.910156 24.496094 12.636719 23.988281 C 12.234375 23.828125 11.835938 23.65625 11.433594 23.46875 C 11.457031 23.441406 11.472656 23.433594 11.480469 23.449219 Z M 11.480469 23.449219 " fill-opacity="1" fill-rule="nonzero"/><path fill="#010101" d="M 10.035156 23.847656 C 10.054688 23.75 10.070312 23.75 10.085938 23.847656 C 10.09375 23.90625 10.097656 23.964844 10.089844 24.03125 C 10.066406 24.308594 10.03125 24.5625 9.984375 24.785156 C 9.710938 26.160156 8.796875 26.988281 7.570312 27.535156 C 7.558594 27.539062 7.554688 27.535156 7.546875 27.527344 L 7.542969 27.511719 C 7.539062 27.507812 7.539062 27.507812 7.542969 27.503906 C 7.90625 27.292969 8.214844 27.085938 8.476562 26.882812 C 9.289062 26.253906 9.78125 25.421875 9.945312 24.382812 C 9.976562 24.199219 10.003906 24.019531 10.035156 23.847656 Z M 10.035156 23.847656 " fill-opacity="1" fill-rule="nonzero"/><path fill="#794e23" d="M 12.882812 25.445312 C 12.878906 25.457031 12.78125 25.433594 12.597656 25.375 C 12.410156 25.316406 12.1875 25.238281 11.929688 25.140625 C 11.671875 25.042969 11.453125 24.957031 11.273438 24.882812 C 11.09375 24.804688 11.003906 24.761719 11.007812 24.75 C 11.011719 24.738281 11.109375 24.761719 11.292969 24.820312 C 11.480469 24.878906 11.703125 24.957031 11.960938 25.054688 C 12.21875 25.148438 12.441406 25.238281 12.621094 25.3125 C 12.800781 25.390625 12.886719 25.433594 12.882812 25.445312 Z M 12.882812 25.445312 " fill-opacity="1" fill-rule="nonzero"/><path fill="#010101" d="M 13.808594 25.53125 L 18.160156 27.28125 C 18.171875 27.285156 18.175781 27.292969 18.167969 27.304688 L 18.160156 27.328125 C 18.15625 27.339844 18.148438 27.34375 18.136719 27.339844 L 13.785156 25.589844 C 13.773438 25.585938 13.769531 25.578125 13.773438 25.566406 L 13.785156 25.539062 C 13.789062 25.53125 13.796875 25.527344 13.808594 25.53125 Z M 13.808594 25.53125 " fill-opacity="1" fill-rule="nonzero"/><path fill="#794e23" d="M 11.644531 26.257812 C 11.558594 26.21875 11.496094 26.183594 11.457031 26.152344 C 11.386719 26.097656 11.390625 26.089844 11.472656 26.121094 C 12.671875 26.605469 13.914062 27.113281 15.199219 27.644531 C 16.445312 28.160156 17.703125 28.644531 18.949219 29.167969 C 18.957031 29.171875 18.960938 29.175781 18.957031 29.1875 L 18.953125 29.199219 C 18.949219 29.203125 18.949219 29.203125 18.945312 29.203125 C 18.683594 29.109375 18.40625 29.011719 18.117188 28.90625 C 17.84375 28.808594 17.566406 28.703125 17.289062 28.589844 C 16.085938 28.105469 14.90625 27.628906 13.746094 27.15625 C 13.011719 26.855469 12.308594 26.558594 11.644531 26.257812 Z M 11.644531 26.257812 " fill-opacity="1" fill-rule="nonzero"/></svg>