<svg xmlns="http://www.w3.org/2000/svg" xmlns:xlink="http://www.w3.org/1999/xlink" width="48" zoomAndPan="magnify" viewBox="0 0 36 36.000001" height="48" preserveAspectRatio="xMidYMid meet" version="1.0"><defs><clipPath id="7e76c32557"><path d="M 1 4 L 35.511719 4 L 35.511719 33.421875 L 1 33.421875 Z M 1 4 " clip-rule="nonzero"/></clipPath></defs><g clip-path="url(#7e76c32557)"><path fill="#f04541" d="M 18.132812 9.046875 C 18.953125 8.230469 19.722656 7.429688 20.519531 6.652344 C 22.964844 4.292969 25.859375 3.503906 29.101562 4.5 C 32.339844 5.5 34.34375 7.773438 34.96875 11.117188 C 35.503906 13.9375 34.742188 16.46875 32.730469 18.542969 C 30.285156 21.0625 27.769531 23.527344 25.289062 26.007812 C 25.226562 26.070312 25.152344 26.121094 25.054688 26.199219 C 25.054688 23.339844 25.054688 20.53125 25.054688 17.679688 C 25.1875 17.675781 25.308594 17.660156 25.4375 17.660156 C 26.621094 17.660156 27.804688 17.652344 28.980469 17.667969 C 29.238281 17.667969 29.332031 17.597656 29.324219 17.332031 C 29.308594 16.425781 29.308594 15.523438 29.324219 14.617188 C 29.332031 14.339844 29.238281 14.261719 28.96875 14.265625 C 27.796875 14.28125 26.621094 14.273438 25.453125 14.273438 C 25.324219 14.273438 25.203125 14.273438 25.039062 14.273438 C 25.039062 12.753906 25.039062 11.273438 25.039062 9.761719 C 23.90625 9.761719 22.816406 9.761719 21.675781 9.761719 C 21.675781 11.238281 21.675781 12.726562 21.675781 14.253906 C 21.496094 14.261719 21.359375 14.273438 21.234375 14.273438 C 20.070312 14.273438 18.917969 14.28125 17.753906 14.265625 C 17.453125 14.261719 17.382812 14.359375 17.390625 14.644531 C 17.40625 15.628906 17.398438 16.621094 17.398438 17.644531 C 18.824219 17.644531 20.214844 17.644531 21.660156 17.644531 C 21.660156 17.804688 21.660156 17.910156 21.660156 18.023438 C 21.660156 21.792969 21.660156 25.558594 21.652344 29.328125 C 21.652344 29.488281 21.589844 29.679688 21.488281 29.785156 C 20.421875 30.875 19.328125 31.960938 18.246094 33.035156 C 18.210938 33.074219 18.175781 33.09375 18.117188 33.136719 C 18.039062 33.066406 17.960938 33.007812 17.890625 32.9375 C 13.128906 28.175781 8.335938 23.433594 3.609375 18.644531 C 1.203125 16.207031 0.496094 13.226562 1.558594 9.984375 C 2.628906 6.71875 4.980469 4.757812 8.371094 4.214844 C 11.125 3.773438 13.554688 4.601562 15.578125 6.53125 C 16.351562 7.265625 17.089844 8.035156 17.847656 8.792969 C 17.9375 8.863281 18.019531 8.941406 18.132812 9.046875 Z M 18.132812 9.046875 " fill-opacity="1" fill-rule="nonzero"/></g></svg>